# xmcd
#
# Track frame offsets:
#	150
#	16339
#	33078
#	56486
#	76295
#	91646
#	112549
#	128472
#	146960
#	158436
#	173185
#	186726
#	201757
#	216684
#
# Disc length: 2972 seconds
#
# Revision: 1
# Processed by: cddbd v1.5.1PL0 Copyright (c) Steve Scherf et al.
# Submitted via: audiograbber 1.81.03
#
DISCID=b30b9a0e
DTITLE=Walker T`Ryan - Underdog American Music
DYEAR=2004
DGENRE=Blues
TTITLE0=Burnin (Like A Kerouac Coyote)
TTITLE1=Statesboro Blues
TTITLE2=Mama Ro
TTITLE3=Black Cat At Midnight
TTITLE4=Goin' Down To Baghdad Blues
TTITLE5=Never Forget (The River Song 04)
TTITLE6=Werewolf Blues
TTITLE7=Corrinna
TTITLE8=Taxicab Blues
TTITLE9=Black Velvet Elvis
TTITLE10=Young Rd Blues
TTITLE11=Write Me A Few Of Your Lines
TTITLE12=Blues For Rooster]p[David`Jacobs-Strain
TTITLE13=Hold On
EXTD=
EXTT0=
EXTT1=
EXTT2=
EXTT3=
EXTT4=
EXTT5=
EXTT6=
EXTT7=
EXTT8=
EXTT9=
EXTT10=
EXTT11=
EXTT12=
EXTT13=
PLAYORDER=
